<svg xmlns="http://www.w3.org/2000/svg" viewBox="0 0 24 24" fill="currentColor">
  <path d="M18.71 19.5c-.83 1.24-1.71 2.45-3.05 2.47-1.34.03-1.77-.79-3.29-.79s-1.99.77-3.26.82c-1.31.05-2.3-1.32-3.14-2.53-1.71-2.47-3.02-7.02-1.26-10.08.87-1.52 2.43-2.48 4.12-2.51 1.28-.02 2.5.87 3.29.87s2.26-1.07 3.81-.91c.65.03 2.47.26 3.64 1.98-.09.06-2.17 1.28-2.15 3.81.03 3.02 2.65 4.03 2.68 4.04-.03.07-.42 1.44-1.38 2.83ZM13 3.5c.73-.83 1.94-1.46 2.94-1.5.13 1.17-.34 2.35-1.04 3.19-.69.85-1.83 1.51-2.95 1.42-.15-1.15.41-2.35 1.05-3.11Z"/>
</svg>
