<svg width="72" height="72" viewBox="0 0 72 72" fill="none" xmlns="http://www.w3.org/2000/svg">
<path d="M11.0092 12.6834C15.6698 10.5028 20.6533 8.91802 25.8633 8.01562C26.5032 9.17246 27.2507 10.7284 27.7661 11.9662C33.3045 11.1333 38.792 11.1333 44.2285 11.9662C44.7438 10.7284 45.5083 9.17246 46.1539 8.01562C51.3696 8.91802 56.3587 10.5086 61.0194 12.695C70.4201 26.9006 72.9684 40.7534 71.6943 54.4094C65.4592 59.0656 59.4168 61.894 53.4763 63.7449C52.0095 61.7263 50.7014 59.5804 49.5745 57.3188C51.7207 56.5033 53.7764 55.4969 55.7188 54.3285C55.2035 53.9467 54.6994 53.5476 54.2125 53.1369C42.3654 58.6781 29.4933 58.6781 17.7878 53.1369C17.2951 53.5476 16.7911 53.9467 16.2815 54.3285C18.2296 55.5026 20.2909 56.509 22.4371 57.3246C21.3102 59.5804 20.0077 61.7321 18.5353 63.7506C12.5891 61.8998 6.54102 59.0714 0.306015 54.4094C-1.18905 38.5786 2.86001 24.853 11.0092 12.6834ZM47.9605 46.0111C51.5168 46.0111 54.4333 42.691 54.4333 38.6479C54.4333 34.6049 51.5791 31.2791 47.9605 31.2791C44.3417 31.2791 41.4253 34.5991 41.4876 38.6479C41.482 42.691 44.3417 46.0111 47.9605 46.0111ZM24.0398 46.0111C27.5961 46.0111 30.5126 42.691 30.5126 38.6479C30.5126 34.6049 27.6585 31.2791 24.0398 31.2791C20.4211 31.2791 17.5046 34.5991 17.5669 38.6479C17.5669 42.691 20.4211 46.0111 24.0398 46.0111Z" fill="currentColor"/>
</svg>
