<svg xmlns="http://www.w3.org/2000/svg" viewBox="0 0 493.423 493.423" fill="currentColor">
  <path d="M168.839 241.198c0-38.117 17.894-72.05 45.685-93.896L171.988 79.22c-35.648 25.603-62.472 62.66-75.127 105.796 19.811 12.751 32.949 35.031 32.949 60.353 0 24.424-12.143 45.957-30.783 58.918 13.606 40.86 40.12 75.838 74.706 100.113l39.559-70.358c-27.105-21.838-44.453-55.318-44.453-92.844ZM109.704 245.368c0 28.484-23.132 51.592-51.609 51.592-28.491 0-51.606-23.107-51.606-51.592 0-28.47 23.115-51.577 51.606-51.577 28.477 0 51.609 23.107 51.609 51.577ZM399.494 370.126c12.002 0 23.301 2.936 33.23 8.149 30.924-32.591 50.906-75.595 54.211-123.228l-80.148-1.551c-6.171 60.111-56.954 106.941-118.677 106.941-17.084 0-33.388-3.594-48.101-10.093l-39.841 69.704c26.56 13.069 56.376 20.411 87.941 20.411 13.622 0 26.981-1.379 39.854-4.006 2.746-34.128 33.717-63.383 71.531-63.383ZM451.071 441.847c0 28.478-23.084 51.576-51.577 51.576-28.493 0-51.594-23.098-51.594-51.576 0-28.5 23.101-51.592 51.594-51.592 28.493 0 51.577 23.092 51.577 51.592ZM438.211 110.152c-11.677 8.269-25.968 13.163-41.399 13.163-39.637 0-71.73-32.102-71.73-71.715 0-2.104.094-4.139.25-6.181-12.05-2.307-24.503-3.491-37.222-3.491-31.859 0-61.988 7.498-88.689 20.777l39.607 69.75c14.979-6.748 31.593-10.544 49.082-10.544 61.177 0 111.601 46.074 118.491 105.414l80.147-2.447c3.562-48.091-14.16-87.839-41.436-119.059ZM448.374 51.601c0 28.492-23.038 51.592-51.561 51.592-28.491 0-51.592-23.1-51.592-51.592C345.22 23.107 368.321 0 396.812 0c28.523 0 51.562 23.107 51.562 51.601Z"/>
</svg>
